<svg xmlns="http://www.w3.org/2000/svg" width="96" height="96" viewBox="0 0 96 96">
  <defs>
    <filter id="glow" x="-50%" y="-50%" width="200%" height="200%">
      <feGaussianBlur stdDeviation="2.2" result="blur"/>
      <feMerge><feMergeNode in="blur"/><feMergeNode in="SourceGraphic"/></feMerge>
    </filter>
    <linearGradient id="leather" x1="0" y1="0" x2="1" y2="1">
      <stop offset="0" stop-color="#26344d"/>
      <stop offset="1" stop-color="#0b101c"/>
    </linearGradient>
    <linearGradient id="cape" x1="0" y1="0" x2="0" y2="1">
      <stop offset="0" stop-color="#633052"/>
      <stop offset="1" stop-color="#17111f"/>
    </linearGradient>
  </defs>
  <rect width="96" height="96" fill="none"/>
  
    <ellipse cx="48" cy="78" rx="24" ry="10" fill="#050812" opacity="0.45"/>
    <path d="M64 28 Q42 12 25 37 L28 73 Q46 88 66 70 Z" fill="url(#cape)" stroke="#8b4d78" stroke-width="2.4"/>
    
    <path d="M45 65 L39 82" stroke="#20293d" stroke-width="7" stroke-linecap="round"/>
    <path d="M56 64 L62 81" stroke="#20293d" stroke-width="7" stroke-linecap="round"/>
    <path d="M58 34 Q39 27 30 43 L35 69 Q48 78 62 67 Z" fill="url(#leather)" stroke="#70809f" stroke-width="2.4"/>
    <circle cx="39" cy="29" r="10.5" fill="#2b3345" stroke="#8394b5" stroke-width="2.2"/>
    <path d="M34 23 Q43 17 52 25 L37 28 Z" fill="#121927"/>
    <path d="M37 47 L20 47" stroke="#263147" stroke-width="8" stroke-linecap="round"/>
    <path d="M57 47 L68 60" stroke="#263147" stroke-width="7" stroke-linecap="round"/>
    
  <path d="M43 47 L51 55 L43 64 L35 55 Z" fill="#30f3de" stroke="#d4ffff" stroke-width="2.2" filter="url(#glow)"/>
  <circle cx="43" cy="55" r="2.3" fill="#ffffff"/>
    
  <line x1="22" y1="45" x2="5" y2="30" stroke="#f4f8ff" stroke-width="5" stroke-linecap="round"/>
  <line x1="22" y1="45" x2="5" y2="30" stroke="#8ffcff" stroke-width="1.5" stroke-linecap="round"/>
  <rect x="17" y="43" width="10" height="4" rx="2" fill="#b88647"/>
    
</svg>