<svg xmlns="http://www.w3.org/2000/svg" width="96" height="96" viewBox="0 0 96 96">
  <defs>
    <radialGradient id="body" cx="45%" cy="35%" r="62%">
      <stop offset="0" stop-color="#c6fff7" stop-opacity="0.94"/>
      <stop offset="0.45" stop-color="#43e7d1" stop-opacity="0.76"/>
      <stop offset="1" stop-color="#126d82" stop-opacity="0.9"/>
    </radialGradient>
    <filter id="coreGlow" x="-60%" y="-60%" width="220%" height="220%">
      <feGaussianBlur stdDeviation="3" result="blur"/>
      <feMerge><feMergeNode in="blur"/><feMergeNode in="SourceGraphic"/></feMerge>
    </filter>
  </defs>
  <rect width="96" height="96" fill="none"/>
  
  <ellipse cx="48" cy="78" rx="27" ry="8" fill="#031017" opacity="0.46"/>
  <path d="M19 53
           C19 33, 33 22, 48 22
           C64 22, 77 34, 77 54
           C76 72, 64 76, 48 76
           C31 76, 19 72, 19 53Z"
        fill="url(#body)" stroke="#b7fff7" stroke-width="3" opacity="0.94"/>
  <path d="M27 44 C36 30, 53 28, 66 41" fill="none" stroke="#f0fffb" stroke-width="4" opacity="0.24"/>
  <path d="M32 45 L48 29 L64 45 L57 66 L39 66 Z"
        fill="#31f4de" stroke="#e4ffff" stroke-width="2.5" filter="url(#coreGlow)"/>
  <path d="M48 32 L54 47 L48 63 L42 47 Z" fill="#ffffff" opacity="0.78"/>
  <circle cx="38" cy="39" r="3.2" fill="#062939"/>
  <circle cx="59" cy="39" r="3.2" fill="#062939"/>
  <path d="M38 51 Q48 53 59 50" fill="none" stroke="#062e42" stroke-width="3" stroke-linecap="round" opacity="0.75"/>
  <path d="M22 61 C12 60, 12 70, 26 71" fill="#5bf6e5" opacity="0.32"/>
  <path d="M74 61 C84 60, 84 70, 70 71" fill="#5bf6e5" opacity="0.32"/>
  
</svg>